<?xml version="1.0" standalone="no"?>
<!DOCTYPE svg PUBLIC "-//W3C//DTD SVG 1.1//EN" "http://www.w3.org/Graphics/SVG/1.1/DTD/svg11.dtd" >
<svg xmlns="http://www.w3.org/2000/svg" xmlns:xlink="http://www.w3.org/1999/xlink" version="1.1">
<metadata>
Created by FontForge 20170910 at Wed Nov  6 00:11:42 1996
 By Jimmy Wärting
Adapted by Jon Bernhardt. Certain letters retouched by Dennis Ludlow.
</metadata>
<defs>
<font id="OriginallycompiledbyJonBernhardt." horiz-adv-x="512" >
  <font-face 
    font-family="Simpsonfont"
    font-weight="5"
    font-stretch="normal"
    units-per-em="1000"
    panose-1="0 0 0 0 0 0 0 0 0 0"
    ascent="800"
    descent="-200"
    x-height="654"
    cap-height="800"
    bbox="-139.006 -199 1222 1113"
    underline-thickness="20"
    underline-position="-143"
    unicode-range="U+0020-2122"
  />
<missing-glyph horiz-adv-x="500" 
d="M63 0v805h375v-805h-375zM125 63h250v680h-250v-680z" />
    <glyph glyph-name=".notdef" horiz-adv-x="500" 
d="M63 0v805h375v-805h-375zM125 63h250v680h-250v-680z" />
    <glyph glyph-name=".null" horiz-adv-x="0" 
 />
    <glyph glyph-name="nonmarkingreturn" horiz-adv-x="250" 
 />
    <glyph glyph-name="space" unicode=" " horiz-adv-x="250" 
 />
    <glyph glyph-name="exclam" unicode="!" horiz-adv-x="252" 
d="M236 750q0 -11 -18 -128q-22 -143 -46 -227q-34 -120 -66 -121q-28 -1 -41 29q-10 21 -11 62l38 305v141q0 26 18 66q20 46 41 46q82 2 85 -173zM172 35q1 -98 -64 -100q-29 -1 -50 29q-25 36 -26 74q-1 34 17 66q20 38 52 38q43 0 60 -34q10 -23 11 -73z" />
    <glyph glyph-name="quotedbl" unicode="&#x22;" horiz-adv-x="410" 
d="M366 752q1 -36 -7 -92q-12 -87 -34 -87q-32 0 -32 86v18q0 23 -1 33q0 105 37 106q24 1 32 -19q4 -10 5 -45zM195 754q-3 -74 -7 -108q-12 -108 -41 -109q-17 -1 -26 47q-7 35 -8 155q-1 80 47 82q32 1 35 -67z" />
    <glyph glyph-name="numbersign" unicode="#" horiz-adv-x="980" 
d="M926 154q-37 0 -113 13q-35 6 -62 6q-45 0 -64.5 -17.5t-19.5 -60.5q0 -15 3 -47l4 -44q0 -36 -12 -56q-9 -15 -27 -26q-24 26 -31 94q-4 53 -9 106q-9 51 -43 51q-43 0 -59 -11q-21 -13 -21 -53q0 -56 4 -80q0 -37 -6 -50q-9 -18 -36 -18q-35 0 -40 52q-2 34 -6 101
q-2 31 -16 41q-8 5 -21 6q-8 0 -19 -1q-20 -2 -46 -5h-123q-38 -6 -54 -6q-53 0 -93 33q13 28 59 51q42 20 76 20h158q45 0 59 13.5t14 58.5v33q0 60 -17 76q-9 8 -23 8q-11 0 -35 -6q-52 -13 -80 -14q-40 -2 -67 18q-18 13 -19 32q-1 25 128 41q72 9 101 34q16 14 18 103.5
t50 132.5q20 -14 29 -27.5t9 -28.5q0 -13 -3.5 -39.5t-3.5 -39.5v-28q0 -29 5 -43t22 -14q53 0 71 10q25 15 26 62q1 65 6 94q11 60 40 61q30 1 31 -90.5t29 -118.5q6 -5 55 -9q30 -2 158 -4q0 -7 3 -14.5t5 -22.5q0 -56 -177 -56q-41 0 -58 -18.5t-17 -74.5
q-1 -120 98.5 -122t159.5 -50v-56zM592 437q0 22 -1.5 27t-12.5 5q-120 0 -120 -121q0 -40 13 -55t51 -16q44 -1 60 26q11 20 11 68q0 17 -1 27v39z" />
    <glyph glyph-name="dollar" unicode="$" horiz-adv-x="608" 
d="M552 216q0 -155 -166 -155q0 -67 3 -70q0 -90 -63 -91q-50 -1 -50 64v27q0 32 -7 50q-10 25 -42 36q-91 32 -111 42q-85 42 -86 90q-1 31 11 44t42 14q6 0 66 -33q70 -38 71 -39h17q3 12 3 25v29q0 37 -82.5 98.5t-83.5 146.5q-1 59 35 117q33 55 85 88q37 23 49 71
l12 74q7 34 35 35q26 1 33 -35q3 -18 4 -48q0 -11 -1 -22v-19q0 -18 3 -24.5t26 -15.5q70 -28 118 -59v-73h-56l-69 39q-6 -3 -15 -6v-174q104 -37 151 -78q68 -57 68 -148zM230 435q-6 33 -7 54q0 8 1 23q0 7 2 22q0 16 -7 40q-43 -65 -43 -75q0 -38 51 -69zM436 211
q0 42 -75 90l2 -67q1 -17 -3 -47h62q6 2 10 4.5t4 19.5z" />
    <glyph glyph-name="percent" unicode="%" horiz-adv-x="835" 
d="M312 662q0 -76 -57 -105q-41 -21 -120 -21q-33 0 -55 27t-22 66q0 47 34 89q48 60 142 60q43 0 63 -42q15 -31 15 -74zM609 771q0 -72 -76 -213q-65 -112 -130 -225q-6 -12 -55 -85q-35 -54 -60 -117q-12 -32 -38 -146q-15 -62 -43 -62q-18 0 -36 29t-18 49q0 109 44 214
q33 80 125 223q71 111 116 198q42 85 84 169q18 34 33 34q54 0 54 -68zM694 176q0 -62 -64 -112q-57 -44 -105 -44q-36 0 -57 37q-18 31 -18 75q0 89 32 126q29 34 96 34q116 0 116 -116zM228 663q0 6 -10 16.5t-14 10.5q-13 0 -32.5 -17t-19.5 -21l4.5 -10.5t6.5 -18.5h33
l21.5 21.5t10.5 18.5zM606 179q0 9 -13 19t-21 10q-15 0 -29.5 -22.5t-14.5 -37.5q0 -6 33 -23q0 1 30 29q15 15 15 25z" />
    <glyph glyph-name="ampersand" unicode="&#x26;" horiz-adv-x="713" 
d="M723 300q1 -26 -55.5 -75t-57.5 -61q0 -7 16.5 -22.5t17.5 -36.5q1 -32 -18 -53t-51 -22q-18 -1 -39 15q-44 33 -46 33q-160 -118 -269 -119q-83 -1 -134 67q-47 61 -48 146q-1 70 79 165q18 21 81 86q-33 59 -56 128q-27 80 -28 135q-1 75 73 125q66 45 144 46
q101 1 175 -54q81 -61 82 -159q1 -78 -63 -145q-90 -74 -136 -111q25 -38 45 -65q49 -66 69 -66q12 0 71 52t80 53q36 1 48 -8q19 -12 20 -54zM433 636q2 76 -77 76q-49 0 -75 -28q-5 -6 -17 -29q0 -18 20 -64q17 -39 37 -77q61 38 81 58q30 29 31 64zM371 180q-9 10 -49 72
q-27 42 -40 43q-14 0 -50 -48.5t-38 -65.5q0 -27 8 -44.5t30 -18.5q26 -1 73 21q43 21 66 41z" />
    <glyph glyph-name="quotesingle" unicode="'" horiz-adv-x="168" 
d="M141 608q-11 -68 -50 -64q-24 2 -47 103q-4 27 -17 98q11 62 59 65q8 0 18 -2q22 -3 35 -52q9 -35 10 -67q0 -30 -8 -81z" />
    <glyph glyph-name="parenleft" unicode="(" horiz-adv-x="350" 
d="M408 -91q1 -34 -27.5 -62t-62.5 -29q-25 -1 -88 48q-195 149 -197 390q0 25 5 66q24 186 136 438q25 57 40 81q33 56 63 57q23 1 41 -21.5t19 -45.5q0 -7 -43 -105q-123 -280 -125 -461q0 -45 17 -104q19 -64 46 -93q67 -72 121 -106.5t55 -52.5z" />
    <glyph glyph-name="parenright" unicode=")" 
d="M465 305q0 -84 -60 -194t-147 -185q-95 -82 -181 -82q-57 0 -57 58q0 17 18 35q89 70 204 175q85 79 87 205q1 66 -37 154q-37 85 -84 136q-81 88 -151 134q-32 19 -96 58q-33 20 -33 41q0 25 19 50t45 25q91 1 220 -125q101 -100 164 -206q88 -150 89 -279z" />
    <glyph glyph-name="asterisk" unicode="*" horiz-adv-x="1047" 
d="M184 973l-93 6l-5 1l-15 2h-4q-15 4 -26 3q-16 -12 -21 -27q-4 -36 8 -56l10 -3l27 -3l8 -1l59 -5l4 -1q35 0 47 -3l-1 -4q0 -18 -2 -29q0 -17 -1 -29v-8l-1 -6v-10l-2 -4v-15l-1 -7q0 -17 -3 -28l-4 -45v-5q-1 -9 -2 -22l-2 -10q0 -16 -2 -26q0 -14 4 -25q41 -33 77 32
q8 16 9 41q4 22 4 35l1 7l1 19l2 7q0 12 2 29v13l3 18q0 12 1 20v13q3 10 2 19q2 13 1 23l4 4q7 0 11 2q12 0 30 4q24 4 39 11q20 32 14 65q-5 10 -12 15h-8l-13 -2l-4 -2l-56 -8q6 65 -38 57q-39 -22 -52 -62zM586 1022q-1 -81 -17 -174q-1 -13 -3 -40q-29 -2 -40 0
q-22 -2 -58 1l8 89q4 12 5 31v10q5 15 6.5 17t6.5 13l7 12l-3 15q11 7 8 17q-14 16 -36 14q-28 -11 -46 -30l-1 -2q-8 -12 -11 -20l-2 -6q-1 -6 -3 -13q-3 -8 -3 -13l-2 -9l-1 -9l-6 -33v-6l-3 -18v-12l-2 -3v-9q-2 -16 -2 -27v-8q-31 -27 -26 -60q14 -9 28 -11q0 -11 2 -19
v-10l1 -7l3 -29l2 -6l1 -10l5 -23l2 -11q6 -17 11 -22q29 -7 53 5q29 23 39 52q1 17 -3 32l-2 5v6l-6 33l12 1l32 2l1 -6l3 -96l6 -20q15 -10 32 -9q75 31 62 95l-1 43q15 6 25 16q42 58 -24 56v22l2 4l3 66q0 4 1 5l2 34l2 9l3 52l1 3v16l2 8q-3 12 -13 21q-18 4 -32 3
q-38 -19 -31 -37zM849 1042q-22 -8 -34 -15l-3 -4l-8 -4l-3 -3q-12 -9 -18 -17q-96 -133 -49 -272q49 -45 73 -77.5t67 -38.5l39 9h19q39 -2 94 41q9 21 6 43q-13 20 -33 24q-11 0 -20 -3q-104 -61 -167 28l-1 3q-5 10 -7 20h22l4 1l10 2q15 1 26 6l23 7q105 63 94 173
q-23 95 -119 81zM903 900q-23 -34 -54 -49l-53 -11q-2 15 5 27q24 84 95 108q35 -16 7 -75z" />
    <glyph glyph-name="plus" unicode="+" horiz-adv-x="688" 
d="M632 388q0 -32 -86 -57l-112 -30q-23 -11 -27 -58q-2 -41 -5 -81t-27 -40t-27 46q-2 42 -5 84q-7 46 -41 46h-158q-20 0 -49 18.5t-29 37.5q0 27 32 41q24 11 56 11h148q22 30 25 127q2 79 33 79q30 0 30 -78v-40q1 -81 33 -81q11 0 66 13.5t74 13.5q25 0 47 -14.5
t22 -37.5z" />
    <glyph glyph-name="comma" unicode="," horiz-adv-x="272" 
d="M239 113q1 -70 -68 -161t-128 -91q-19 0 -31 15q-8 14 -10 24q0 8 28 43q19 23 71 93q1 2 50 92q17 31 40 32q47 1 48 -47z" />
    <glyph glyph-name="hyphen" unicode="-" horiz-adv-x="524" 
d="M504 276q-86 -41 -113 -50q-71 -24 -169 -24q-49 0 -105 21q-71 27 -73 72q22 36 40 38q7 0 32 -8l35 -12q18 -5 33 -7q5 0 10 -1h15q70 0 214 14q12 0 27 -9q34 -20 54 -34z" />
    <glyph glyph-name="hyphen" unicode="&#x2010;" horiz-adv-x="524" 
d="M504 276q-86 -41 -113 -50q-71 -24 -169 -24q-49 0 -105 21q-71 27 -73 72q22 36 40 38q7 0 32 -8l35 -12q18 -5 33 -7q5 0 10 -1h15q70 0 214 14q12 0 27 -9q34 -20 54 -34z" />
    <glyph glyph-name="period" unicode="." horiz-adv-x="261" 
d="M231 100q0 -47 -33 -81.5t-80 -35.5q-36 -1 -46 12q-6 10 -7 49q-1 35 30.5 77t70.5 43q27 1 46 -18t19 -46z" />
    <glyph glyph-name="slash" unicode="/" horiz-adv-x="540" 
d="M529 682q1 -35 -80 -145q-39 -53 -80 -102q-7 -60 -68 -130q-91 -105 -130 -204q-9 -36 -28 -109q-9 -33 -52 -33q-37 0 -58 43q-16 32 -17 75q0 7 22 63q67 169 155 305l141 219q40 60 49 71q37 43 71 43q30 0 52 -32.5t23 -63.5z" />
    <glyph glyph-name="zero" unicode="0" horiz-adv-x="675" 
d="M368 39l-20 -2h-21q-111 0 -209.5 81.5t-115.5 191.5q-11 72 -12 92l-1 22q-6 123 59 268q59 132 145 132l77 -14l135 -23q64 -11 122 -103q49 -78 62 -154q12 -68 12 -119q0 -137 -49 -236q-62 -124 -184 -136zM149 338q5 -39 60 -122q49 -74 98 -75q70 -2 109 113
q36 105 36 216v35q-2 12 -5 32q-2 17 -63 100q-54 74 -104 77q-70 -6 -102 -110q-31 -99 -32 -210q0 -32 3 -56z" />
    <glyph glyph-name="one" unicode="1" horiz-adv-x="646" 
d="M622 70q0 -25 -20 -42.5t-46 -17.5h-263q3 0 -28 6q-36 8 -82 13q-65 6 -144 6q-3 14 -8 28q-4 10 -4 15q0 45 46 45q15 0 56.5 -7t62.5 -7q90 0 90 118q0 92 -21 251q-13 90 -26 181q-3 3 -9 3q-8 0 -63.5 -45t-77.5 -45t-40 17.5t-18 36.5q0 8 35 50q44 51 90 84
q63 44 119 44q28 0 55 -51q33 -62 33 -157v-263q1 -60 5 -104q10 -104 31 -111q17 -6 49 -6q15 0 47 2t48 2q83 0 83 -46z" />
    <glyph glyph-name="two" unicode="2" horiz-adv-x="548" 
d="M262 440q26 48 53 95q34 64 35 97q0 14 -4 28.5t-29 31.5l-29 19q-43 0 -103 -65l-132 -143q-18 0 -41 23.5t-27 42.5q0 22 74 101q58 63 95 94q68 57 115 57q37 0 65 -18l58 -37q30 -19 48 -57t19 -75q2 -98 -127 -336l-68 -126q0 -9 17 -10l21 3l26 4h60l41 2
q40 2 66 -31q23 -30 24 -71q0 -8 -42 -23q-42 -11 -112 -18q-22 0 -66.5 -3t-66.5 -3q-15 0 -50 -6.5t-54 -6.5q-21 0 -28 23q-7 35 -7 63v15l1 16q76 139 168 314z" />
    <glyph glyph-name="three" unicode="3" horiz-adv-x="462" 
d="M20 98q0 10 7.5 13.5t25.5 6.5l64 -5q45 -3 124 63q75 63 75 98q0 28 -48 60.5t-78 32.5l-78 -29q-13 -3 -25 -6q-6 0 -19 -2q-8 0 -10 2l-21 9q-10 9 -11 46q0 19 4 23.5t79.5 50.5t94.5 64q63 59 64 148q0 9 -19.5 22t-37.5 15q-55 0 -96 -11l-94 -25q-26 0 -47 46
q-3 7 -5 24q0 19 18 29q36 14 102.5 28t103.5 14q10 0 14 1q65 0 96 -33l52 -55q21 -22 24 -51q0 -82 -46 -147l-61 -72v-9q37 -7 93 -56.5t57 -107.5q1 -108 -99 -194q-96 -83 -205 -83q-35 0 -66 32t-32 58z" />
    <glyph glyph-name="four" unicode="4" horiz-adv-x="523" 
d="M107 242q-28 0 -55 20t-28 75q0 8 56 130q61 133 110 228q54 105 72 105q23 0 66 -18q48 -19 52 -37q8 -38 10 -125q0 -31 2 -115q3 -79 3 -105q0 -5 11 -11l46 -6q15 0 32 -38q14 -33 15 -52q1 -11 -24 -13l-60 6q-12 0 -12 -6l4 -91l4 -114l6 -55q0 -12 -3 -15t-9 -5
q-63 0 -85 40q-12 22 -23 101q-13 94 -14 122q-1 15 -20 16zM186 359l56 6q25 0 30 7q3 4 8 21l1 14l1 27l-1 16v133q0 23 2 35q0 8 -7 11q-47 0 -77 -49q-23 -37 -40 -111q-11 -58 -23 -116h18z" />
    <glyph glyph-name="five" unicode="5" horiz-adv-x="483" 
d="M248 800q46 0 72 -4l44 -3q17 -1 68 7l20 -14q13 -9 14 -50q1 -51 -14 -60l-20 -8q-25 0 -82 5l-68 6q-67 0 -93 -39q-20 -32 -21 -104q-1 -74 75 -104l140 -39q75 -32 76 -121q1 -119 -50 -174t-125 -70l-110 -22q-32 -6 -69 -6q-82 0 -83 45q-1 22 10 39l22 35
q265 0 266 115q0 32 -14 69l-58 15q-21 5 -73 7q-35 1 -58 14l-56 31q-15 26 -21 51.5t-6 47.5l1 61v27q0 19 2 32v64q0 104 55 131q32 15 156 16z" />
    <glyph glyph-name="six" unicode="6" horiz-adv-x="629" 
d="M343 0q-95 -1 -171 65q-66 56 -107 152q-36 84 -36 126q0 153 84 305q87 157 230 152l29 -1h29l18 1h10l44 -29q46 -30 46 -78q0 -23 -21 -31q-10 -1 -28 -5h-13q-148 0 -193 -28q-62 -38 -64 -172q3 -15 47 -15q41 0 89 9l81 16q123 0 161 -93q22 -54 22 -203
q0 -54 -76 -112t-181 -59zM319 159q39 -1 110 40q44 37 44 83q0 47 -44 60l-19 -5l-29 -1l-47 1l-50 4q-17 1 -54.5 -29t-38.5 -72q0 -20 10 -41q3 -2 25 -14q10 -4 31 -13q25 -12 62 -13z" />
    <glyph glyph-name="seven" unicode="7" horiz-adv-x="638" 
d="M594 766q15 -10 16 -54q1 -84 -70 -316q-16 -51 -43 -129.5t-81 -221.5q-7 -17 -26 -28l-39 -12l-34 -5q-20 0 -31 9q-5 6 -8 24v8l14 38l57 150l89 253q44 126 46 172q0 6 -5 14q-7 21 -94 21q-173 0 -312 -77q-33 18 -40 39l-4 23q0 18 2 24l10 29q9 27 173 52
q134 20 199 21q126 1 181 -34z" />
    <glyph glyph-name="eight" unicode="8" horiz-adv-x="585" 
d="M502 690q33 -63 40 -104l11 -63q0 -19 -11 -30l-17 -23q-4 -6 -7 -22q0 -16 15 -82l19 -83l4 -40q0 -114 -103 -182q-90 -60 -210 -61q-76 -1 -138 114q-55 100 -56 184q0 39 16 52q-7 55 -21 125q-3 13 -8 40q-2 13 -9 40q0 102 92 176q85 68 190 69q58 1 112.5 -29.5
t80.5 -80.5zM123 534q12 -43 21 -61q19 -34 48 -35l26 -1h21q10 0 68 31q36 20 71 39l9 41q4 19 5 51q1 27 -9.5 53.5t-53.5 26.5q-54 0 -130 -54.5t-76 -90.5zM199 287l-4 -32v-24q0 -14 8 -31q3 -13 7 -23q0 -4 10 -21q47 -9 83 -9q129 0 130 106q0 25 -9 49l-18 46
q-27 15 -69 15q-106 0 -138 -76z" />
    <glyph glyph-name="nine" unicode="9" horiz-adv-x="629" 
d="M286 800q113 1 215 -115q98 -112 99 -228q1 -153 -84.5 -305t-229.5 -152h-30l-29 1l-27 -1l-45 28q-19 12 -34 39q-9 21 -11 40q0 24 20 31q7 1 16 2.5t11 1.5q8 0 14 1q96 7 126 11q54 7 78 22q54 33 54 167q-3 15 -47 15q-36 0 -90 -10l-81 -15q-122 0 -159 94
q-22 53 -23 202q-1 71 96 124q84 46 161 47zM294 656q-41 0 -110 -40q-37 -31 -37 -78q0 -57 52 -80l19 5l30 1h22q15 0 26 -2l48 -3q27 -2 60 33.5t34 68.5q0 19 -10 40q-96 55 -134 55z" />
    <glyph glyph-name="colon" unicode=":" horiz-adv-x="240" 
d="M201 472q1 -34 -18 -54.5t-53 -21.5t-61 25t-27 60q0 31 24 52t55 22q46 1 62.5 -17.5t17.5 -65.5zM217 82q0 -41 -18.5 -57t-60.5 -17q-26 -1 -48 29q-20 27 -21 54q-2 77 86 77q60 0 63 -71q0 -12 -1 -15z" />
    <glyph glyph-name="semicolon" unicode=";" horiz-adv-x="246" 
d="M199 525q0 -34 -18.5 -57t-44.5 -23q-33 0 -55 28t-22 68q0 29 8 37q11 13 53 13q32 0 55.5 -18t23.5 -48zM219 33q0 -86 -53 -161q-51 -71 -104 -71q-43 0 -78 26t-35 66q0 24 32 33t65 18q40 13 55 46q11 24 11 58q0 13 -2 35.5t-2 31.5q0 42 37 42q16 0 40 -25
q34 -37 34 -99z" />
    <glyph glyph-name="less" unicode="&#x3c;" horiz-adv-x="560" 
d="M462 628q0 -34 -66 -89q-29 -24 -124 -90q-66 -46 -66 -58q0 -27 121.5 -116t121.5 -103q0 -50 -57 -50q-52 0 -169 101l-78 64q-61 54 -61 85q0 48 38 90q27 30 102 83q47 33 130 101q40 32 58 32q24 0 39 -22q11 -17 11 -28z" />
    <glyph glyph-name="equal" unicode="=" horiz-adv-x="736" 
d="M636 547q0 -58 -64 -58q-19 0 -42 5l-23 5q-95 -27 -143 -27q2 0 -22 4q-27 4 -66 6q-56 4 -134 4q-74 0 -74 58q0 73 156 73q74 0 114 -15l198 20q56 -3 78 -21t22 -54zM674 287q0 -60 -105 -80q-80 -15 -289 -15q-81 0 -98 4q-44 11 -44 56q0 60 97 68q71 1 141 2
q64 9 99 9q19 0 32 -2.5t18 -1.5l38 12q41 11 76 11q7 0 20 -17q15 -21 15 -46z" />
    <glyph glyph-name="greater" unicode="&#x3e;" horiz-adv-x="544" 
d="M470 405q0 -53 -136 -166q-106 -88 -166 -88q-15 0 -29 11.5t-14 32.5q0 17 24 33q72 48 150 112q25 21 51 41q9 9 9 17q0 11 -51 59q-86 81 -127 124q-66 69 -66 106q0 19 12 33t29 14q12 0 59 -48q4 -4 110 -116q22 -23 113 -108q32 -29 32 -57z" />
    <glyph glyph-name="question" unicode="?" horiz-adv-x="764" 
d="M674 683q1 -69 -61 -129q-38 -33 -113 -101q-61 -55 -62 -104q0 -5 19 -47q9 -21 10 -45q1 -40 -12.5 -53t-54.5 -14q-22 0 -59 39q-45 47 -45 107q0 80 74 159l162 171q0 37 -60 47q-22 4 -87 5q-116 1 -171 -36q-27 -18 -57 -18q-24 0 -47.5 20.5t-24.5 44.5
q14 22 22 35q85 103 288 103q107 0 182 -39q96 -49 97 -145zM462 29q1 -36 -34 -70t-58 -35q-14 -1 -48 29q-39 34 -39 64q13 16 36 42q40 42 65 42q28 0 52.5 -22t25.5 -50z" />
    <glyph glyph-name="at" unicode="@" horiz-adv-x="1041" 
d="M977 439q0 -99 -74 -239q-76 -144 -152 -175q-67 -27 -245 -27q-255 0 -370 122q-77 80 -77 185q0 269 156 408q136 121 358 121q213 0 318 -125q86 -104 86 -270zM879 469q0 89 -80.5 175t-158.5 86q-207 0 -327 -76q-150 -95 -150 -299q0 -264 341 -264q96 0 145 10
q41 9 67.5 32.5t52.5 48.5q-59 0 -163 140q-48 -68 -121 -108q-67 -37 -127 -37q-69 0 -113 56q-42 51 -42 119q0 142 100 236q84 78 169 78q69 0 122 -20q62 -23 62 -64q0 -21 -6 -29q-1 -1 -22 -15q29 -6 47 -67q27 -90 38 -108q31 -57 94 -57q37 0 58 80q14 53 14 83z
M587 531q-45 0 -76 12t-45 12q-36 0 -91.5 -73t-55.5 -114q0 -62 45 -62q81 0 121 41q24 24 50 90.5t52 93.5z" />
    <glyph glyph-name="A" unicode="A" horiz-adv-x="805" 
d="M436 876q89 1 162 -150q81 -167 103 -265l92 -391l-8 -29q-6 -18 -17 -27t-23 -12l-20 -2q-20 0 -28 2l-24 7v50l1 48q2 76 -21.5 111t-97.5 35q-208 1 -260 -20.5t-80 -91.5t-102 -127l-24 -7l-26 -2q-19 0 -27 11q-4 10 -4 27q0 32 7 64q10 42 18 63q29 69 100 316
q59 202 118 304q50 85 161 86zM244 323l56 8l35 3l91 -7q23 -1 65 13q36 12 93 53q-12 90 -64 219q-51 125 -78 126l-18 2h-9q-89 0 -108 -170t-63 -247z" />
    <glyph glyph-name="B" unicode="B" horiz-adv-x="702" 
d="M350 800q50 0 119 -52t69 -113q0 -53 -14 -90q-12 -42 -57 -74q94 -45 151 -81q52 -33 53 -122q-13 -39 -14.5 -44t-11.5 -25q-50 -101 -153 -153q-92 -46 -213 -46q-87 0 -139 25l-96 46l-12 53l17 23l89 -6q-9 41 -15 72q-5 22 -13 70q-7 36 -8 98q-1 46 11 66l25 24
q-2 9 -9 25q0 2 -9 32t-9 75q0 197 239 197zM205 647l5 -172q32 8 84 13q42 4 66 14q36 14 80 53l18 52l-18 75q-23 14 -58 15l-80 2q-74 2 -84 -18zM209 329v-188q0 -24 37 -24q24 0 75.5 12t75.5 12l73 27q64 24 81 67l-24 84q-28 19 -113 37q-80 17 -121 17
q-39 0 -61.5 -10t-22.5 -34z" />
    <glyph glyph-name="C" unicode="C" horiz-adv-x="710" 
d="M391 800q58 0 152 -49q103 -54 103 -100q0 -9 -7 -17q-94 28 -172 30q-21 1 -44 -3q-7 -1 -18 -3q-4 0 -10 -5q-165 0 -210 -51q-42 -47 -42 -216q0 -129 129 -193q68 -34 243 -67q162 -30 163 -60l-27 -53l-95 -13q-163 0 -281 45q-154 58 -206 185q-36 90 -37 184
q-1 155 101 268q105 118 258 118z" />
    <glyph glyph-name="D" unicode="D" horiz-adv-x="728" 
d="M68 800q56 -12 250 -38q189 -25 260 -60q126 -62 126 -210q0 -115 -29 -187q-35 -86 -122 -142q-64 -41 -300 -163h-185l-13 104q-6 50 -6 97q0 33 -3 97.5t-3 97.5q0 50 1 76l5 129q0 47 6 100q4 32 13 99zM184 666q0 -34 -4 -97q-5 -67 -5 -97q-3 -62 -9 -187
q-2 -40 2 -93q1 -48 10 -97l136 28l190 131q42 37 77 238q0 49 -56 79q-34 19 -118.5 39.5t-109.5 33.5z" />
    <glyph glyph-name="E" unicode="E" horiz-adv-x="712" 
d="M470 810q129 1 131 -60l-27 -54q-98 -34 -213 -46q-60 -6 -82 -45q-17 -30 -14 -88q5 -159 113 -102q126 60 190 61q57 1 57 -37q0 -18 -18 -59q-102 -25 -205 -50q-151 -39 -152 -82q-1 -58 22 -95q28 -45 88 -45q52 0 153 15.5t151 16.5q104 2 107 -56l5 -7q3 -3 3 -12
q0 -8 -9 -16q-12 -11 -52 -18l-160 -27q-27 -4 -143 -14h-33q3 0 -126 4q-57 2 -75 13q-7 5 -14 12t-12 13l-18 26l-1 155q0 75 -21 76l-28 -8q-17 -5 -41 -7q-50 0 -98 32l-4 37q26 42 65 21t108 -6q0 79 -7 174l-6 95q-7 92 71 140q49 31 175 39q49 3 120 4z" />
    <glyph glyph-name="F" unicode="F" horiz-adv-x="642" 
d="M397 799l67 1l73 3q44 2 60 -18t16 -89q-3 -13 -166 -22q-181 -11 -209 -19q-93 -27 -94 -120q-1 -63 23.5 -86t70.5 -20l69 4l58 5q32 3 54 -5q23 -2 46 -16q22 -10 23 -53q1 -27 -10 -51l-180 -16l-137 13l10 -97l-10 -200q-6 -13 -16 -18.5t-29 -5.5l-27 3
q-15 0 -27 12l-15 22q0 40 -2 76q-3 67 -7 152l-9 148l3 103q3 109 19 154q27 74 108 103q97 35 238 37z" />
    <glyph glyph-name="G" unicode="G" horiz-adv-x="754" 
d="M446 800l58 -5l33 -41q-23 -12 -165 -95q-244 -144 -246 -362q-1 -84 60 -145t145 -61q157 0 320 275q-134 37 -293 37h-23q-27 0 -33 1q-37 1 -39 30q6 51 263 53q92 1 146 -8q48 -8 48 -90q0 -66 -88 -175q-72 -87 -144 -142q-95 -72 -179 -72q-99 0 -189 112
q-85 106 -86 208q-1 156 134 296q115 120 278 184z" />
    <glyph glyph-name="H" unicode="H" horiz-adv-x="863" 
d="M788 889v-264l7 -369q2 -100 -9 -133q-9 -27 -50 -45q-25 0 -45 43q-18 38 -19 111q-1 58 16 111q-105 0 -165 -8q-41 -5 -123 -16q-49 0 -141 18l4 -80q1 -25 -4 -70q-1 -21 -5 -56l-8 -127l-85 -4l-10 171l10 166q-44 0 -74 -7l-35 -15l-19 13l-22 52q12 50 61 73
l79 -5q6 66 7 111l5 148v116q0 46 56 48q19 1 32.5 -7t20.5 -28l-12 -32l-3 -29q0 -24 6 -42l5 -34l-3 -17l-3 -229l114 9q59 16 144 10h56q25 25 62 1l46 -2q0 61 13 163l13 111v35q-1 10 -5 29q0 12 -3.5 26.5t-13.5 39.5l-4 14l55 17z" />
    <glyph glyph-name="I" unicode="I" horiz-adv-x="440" 
d="M297 800h105q12 -19 12 -31q0 -11 -69 -39q-72 -29 -68 -101l2 -32l5 -128q0 -26 2 -76q5 -71 6 -105q0 -38 10 -91q3 -16 13 -60q34 0 73 -17q31 -13 32 -37q1 -12 -24 -50q-8 -13 -12 -19q-8 -11 -20 -14l-40 17q-19 5 -40 7l-101 -6q-73 -4 -105 52q0 42 35 50
q32 7 81 7h30q0 43 -3.5 130t-3.5 130q0 27 -16 161l-8 67q0 35 19 77l-69 -1h-85q-38 0 -38 13q2 6 2.5 9.5t7.5 11.5l17 29q47 34 137 36q43 1 57 2q37 2 56 8z" />
    <glyph glyph-name="J" unicode="J" horiz-adv-x="509" 
d="M456 1031h143q16 -22 17 -41q0 -16 -93 -52q-98 -37 -93 -135l3 -46l6 -161l12 -249q5 -110 30 -214q-25 -70 -72.5 -102t-116.5 -32q-68 0 -136 31q-78 35 -108 89q0 48 31 49q19 1 105 -50q80 -48 117 -50q36 -1 57 51q0 165 -14 388q-1 45 -9 142q-7 52 -18 133v26
q5 23 24 77l-96 -1h-82q-81 0 -81 17q0 9 14 32l22 36q61 46 185 48q55 1 77 2q54 3 76 12z" />
    <glyph glyph-name="K" unicode="K" horiz-adv-x="581" 
d="M191 797q34 -12 34 -85q0 -27 -14 -140l-14 -113q0 -42 18 -48q19 -3 80 74l124 158q59 76 76 71l43 -23q16 -8 16 -30q1 -65 -95 -148q-66 -57 -137 -132q17 -17 71 -110l72 -124q18 -30 48 -56l7 -18l4 -23q0 -32 -26 -43l-17 -3q-20 0 -27 5q-30 15 -93 119
q-44 73 -90 127q-40 48 -99 64q-21 -42 -34 -155.5t-39 -139.5l-39 -24l-34 24q19 137 41 369l10 130q11 115 30 182q27 94 68 95z" />
    <glyph glyph-name="L" unicode="L" horiz-adv-x="603" 
d="M148 785l29 10q7 0 14 2q12 2 19 3l17 -3q24 -4 26 -48q1 -15 -2 -31q0 -3 -18 -59q-4 -14 -14 -31l-21 -80l-35 -164q-15 -70 -15 -137q0 -61 56 -88q53 -25 143 -26q72 -1 166 16q18 3 39 8l15 -14q6 -6 10 -28q0 -8 -6 -20l-14 -20q-162 -75 -386 -75h-27
q-59 0 -83.5 8t-33.5 39l9 289q1 29 17 119q23 127 43 201q27 98 52 129z" />
    <glyph glyph-name="M" unicode="M" horiz-adv-x="1167" 
d="M367 785q48 0 87 -90l73 -224q38 -117 98 -200q97 69 155 162q38 60 97 203q50 121 83 122q20 1 50 -26q61 -90 85 -192q10 -44 32 -210.5t58 -270.5l24 -51q13 -28 13 -55q0 -48 -55 -48l-32 3l-26 8q-39 49 -63 154q-15 63 -32 197q-16 130 -28 178q-102 -30 -158 -109
l-96 -135q-58 -66 -149 -66q-67 0 -82 32q-10 22 -50 170q-37 137 -99 244q-99 -65 -149 -185q-34 -83 -58 -235q-20 -129 -45 -130q-22 -1 -73 59q-9 5 -9 32q0 82 53 241q57 170 134 293q81 129 162 129z" />
    <glyph glyph-name="N" unicode="N" horiz-adv-x="843" 
d="M804 724l-14 -227q-13 -83 -15 -106q-6 -56 -6 -97q0 -106 -30 -205q-18 -60 -69 -61q-35 -1 -93 36l-339 434q-4 4 -12 7q-19 0 -28 -83q-5 -50 -5 -100q0 -179 34 -258l-7 -21q-4 -13 -10 -22q-10 -21 -42 -21q-25 0 -51 23l-24 27l-45 214q-10 48 -10 95
q0 122 50.5 214t121.5 93q47 1 155 -126q19 -23 130 -167q104 -136 122 -137q5 0 8 14q0 17 -1 93l-1 79l-4 161q-3 103 20 162l34 36q17 18 42 19q28 1 51 -25q12 -17 38 -51z" />
    <glyph glyph-name="O" unicode="O" horiz-adv-x="691" 
d="M359 800q111 1 205.5 -136.5t95.5 -316.5q1 -148 -162 -254q-142 -92 -289 -93q-94 -1 -141 117q-35 87 -35 203q0 179 77 317q91 162 249 163zM180 308q-2 -7 -3 -9t-15.5 -26t-14.5 -44q0 -32 33 -69l47 -24q20 -10 63 -12l54 4q40 4 115.5 93.5t76.5 205.5
q1 87 -47 160q-54 83 -138 83l-22 -2q-73 0 -111 -110q-35 -103 -38 -250z" />
    <glyph glyph-name="P" unicode="P" horiz-adv-x="535" 
d="M267 800q90 1 168 -88q74 -85 75 -177q1 -100 -78 -160q-72 -55 -175 -56q-62 -1 -99 23l20 -137q11 -74 9 -118l-1 -24q0 -8 -2 -23q-3 -38 -39 -40l-20 2q-12 1 -24 17l-24 31l-36 173q-16 77 -17 113l-5 199q-3 111 81 189q80 75 167 76zM142 525q5 -68 12 -91
q5 -16 80 -17t124 32q56 37 64 108q-30 61 -59 83q-34 27 -96 27q-64 1 -97.5 -28.5t-29.5 -85.5z" />
    <glyph glyph-name="Q" unicode="Q" horiz-adv-x="852" 
d="M431 785q120 0 244 -86q134 -93 134 -208q0 -129 -76 -225q-91 -116 -180 -160l-90 -45l-5 -12l-2 -21q0 -58 51 -132l4 -12l3 -15q0 -42 -70 -44q-20 0 -32 27q-5 15 -6.5 23t-7.5 33q-58 112 -144 154l-158 78q-63 53 -63 197q0 173 111 307q117 141 287 141zM140 357
q-1 -84 44 -142q35 -45 118 -96l18 32q20 90 37 90q27 0 71 -94q119 43 188 128q73 90 74 212q1 82 -79 135q-70 47 -156 48q-128 1 -221 -92t-94 -221z" />
    <glyph glyph-name="R" unicode="R" horiz-adv-x="515" 
d="M319 800q59 0 116 -67.5t58 -128.5q1 -99 -84 -164l-155 -118l233 -167q18 -16 28 -73q-30 -45 -65 -46q-34 -1 -76 39l-112 105q-69 64 -127 102l10 -255l-64 -27l-45 61v413q0 133 74 226q79 100 209 100zM129 505l6 -95q78 0 148 52q62 46 101 121q-6 29 -26 62
q-24 41 -48 41q-52 0 -117 -55q-68 -58 -64 -126z" />
    <glyph glyph-name="S" unicode="S" horiz-adv-x="801" 
d="M112 807l-30 -28l-8 -10l-5 -5q-9 -9 -12 -15l-13 -19l-2 -4l-10 -17l-5 -14q-5 -9 -7 -17q-3 -17 -6 -26v-50q0 -23 3 -39q5 -10 10 -27l37 -57l5 -4q5 -8 10 -13l38 -36l9 -7l10 -7q8 -8 13 -11l9 -6l10 -8l3 -1l8 -6l44 -26l7 -5l57 -32q5 -2 38.5 -19.5t43.5 -23
t28 -15.5l79 -43l25 -16l17 -9l5 -4l18 -11l4 -3l8 -6l22 -16q27 -39 59 -65l-17 -3l-7 -7q-10 -3 -25 -4q-17 -3 -42 -5l-12 -1h-63l-9 1h-16l-10 2h-14l-7 1h-11q-19 3 -30 3l-6 2q-13 0 -23 1q-15 3 -27 3q-13 4 -23 4q-4 1 -12 1l-13 3q-20 2 -34 5q-5 0 -7 1l-10 2
q-8 0 -14 1.5t-16 2.5q-15 2 -13 16l-39 4q-30 11 -55 -9q-62 -40 -45 -107q8 -14 20 -22q13 0 23 -1q4 -2 12 -2l8 -1l20 -3l11 -2l18 -3q13 -3 23 -3l12 -3l37 -5l7 -1l8 -2l19 -1q15 -3 26 -3l5 -2l24 -3h10l5 -1l12 -2h11q17 -3 31 -3l6 -1h19l13 -2h126l11 2h11
q10 3 20 3l48 9l119 99q18 77 -57 167l-3 3l-8 10q-12 13 -22 21l-19 17l-5 3q-18 14 -25 20q-12 6 -20 14l-139 79l-24 11l-6 5l-74 38q-3 1 -7.5 3.5t-5.5 4.5l-94 56q-5 2 -7 5l-23 15l-64 54q-3 4 -50 34l-13 40l14 36l43 26l41 11l4 3l10 4l45 25q17 6 27 12l3 2l12 4
q35 14 43 16l5 3q41 13 84 23l20 4q27 -6 34 6l16 3h7l35 5l12 2h82l5 -2q34 -3 59 -15l15 -13q-7 -41 25 -62q37 1 52 27q82 219 -248 193q-245 -32 -416 -156z" />
    <glyph glyph-name="T" unicode="T" horiz-adv-x="594" 
d="M302 800q30 -5 41 -56q12 -56 16 -59l32 -8l52 -4l62 3l49 7l16 -21q9 -12 9 -36q0 -15 -8 -26l-13 -18h-51q-12 1 -32 4l-82 11q-13 0 -21 -3.5t-14 -27.5t-6 -217l1 -329l-62 -20l-51 19l-10 126l-3 125q-1 36 5 173l5 117q1 18 -3 35q-17 26 -44 26l-34 -5l-40 -4
q-38 0 -71 22l-12 17q-1 3 -5 19q0 16 9 24l16 14q29 0 87.5 -6.5t87.5 -6.5q6 0 7 7l-2 14l-1 14l3 19q3 11 11 20q4 7 24 12.5t32 18.5z" />
    <glyph glyph-name="U" unicode="U" horiz-adv-x="745" 
d="M684 762l27 -154l-8 -254q-20 -150 -99 -245q-90 -109 -232 -109q-165 0 -239 122q-47 78 -78 276l-21 353q-1 23 22 35q15 5 19 7l28 7l38 -9q18 -6 31 -22l-5 -107l-4 -140q-3 -105 14 -207q15 -91 55.5 -148t118.5 -58q64 -1 104 34q25 22 68 92q66 108 66 277
q0 88 -16 168q-7 35 -16 66l13 25q8 10 31 12l33 3q26 0 34 -8z" />
    <glyph glyph-name="V" unicode="V" horiz-adv-x="682" 
d="M607 800l20 -13q9 -5 17 -16q4 -6 7 -21q0 -38 -41 -83q-58 -114 -110 -301q-54 -197 -88 -271q-20 -44 -81 -70q-46 -20 -72 -25q-39 0 -57 59q-17 79 -50 237q-39 205 -69 267l-35 72q-16 34 -17 62q-1 40 18 49q19 5 37 7q14 6 24 6q44 0 79 -114q18 -75 36 -149
q56 -226 84 -254q5 -3 13 -6q17 0 82 184l84 242q43 104 119 138z" />
    <glyph glyph-name="W" unicode="W" horiz-adv-x="1122" 
d="M824 6q-9 -5 -28 -7q-18 0 -36 6l-29 15q-58 59 -72 143l-28 165q-13 77 -87 136q-18 5 -75 -124q-97 -217 -120 -262q-30 -58 -74 -59q-13 0 -28 11.5t-28 36.5q-33 87 -70 250q-38 168 -66 244l-27 74q-1 11 -5 27v14q0 23 14 46q3 4 15 16l35 27l17 3q54 0 73 -133
q1 -10 12 -124q11 -117 16 -146q20 -109 59 -110q11 0 24 7q25 40 74 150q44 98 83 150q48 65 87 78l48 16q36 0 63 -74q19 -51 68 -228q43 -152 57 -169q11 -10 21 -14q43 0 81 218q31 180 31 271q0 60 -10 77q18 63 71 63l33 -5q25 -4 37 -30q5 -14 11 -49l-27 -245
l-69 -225q-29 -94 -52 -136q-37 -68 -99 -104z" />
    <glyph glyph-name="X" unicode="X" horiz-adv-x="606" 
d="M291 494l161 299q4 4 15 7q15 0 31 -21l14 -21q6 -11 13 -23q0 -47 -16 -90q-17 -47 -52 -110l-71 -129q35 -12 95 -110q47 -74 74 -137q24 -55 24 -75q0 -12 -3 -23q-9 -22 -30 -38t-44 -17q-39 -1 -66 57l-57 121q-29 62 -59 83l-78 -138q-37 -65 -53 -103
q-20 -15 -28 -19q-13 -6 -33 -7q-17 -1 -28 5q-29 19 -30 54q-1 24 10 52q5 14 11 30q6 12 10 17q46 57 74 114l47 96q-58 43 -103 101q-56 73 -77 156q-15 30 -15 59q0 33 20.5 54t54.5 25l18 2h9q26 0 35 -10t11 -36l-1 -33q-2 -63 31 -112q27 -39 86 -80z" />
    <glyph glyph-name="Y" unicode="Y" horiz-adv-x="727" 
d="M214 791q18 -12 28 -38q7 -28 8 -58q1 -21 -6 -67l-6 -41q0 -51 16 -108.5t52 -61.5l44 -5q47 0 92 80l88 158q57 84 131 84q26 -11 28 -51q1 -15 -13 -68l-13 -51q0 -107 -47 -253q-45 -139 -118 -232q-96 -123 -215 -124q-225 -2 -243 53q-12 37 -12 52q0 19 21 20
q4 0 56 -12l64 -15q21 -3 53 -3q178 0 273 194q37 75 42 131l10 105l-67 -107q-39 -51 -107 -51q-77 0 -124 28t-82 97q-48 93 -48 180v59q0 57 1 63q6 33 36 46z" />
    <glyph glyph-name="Z" unicode="Z" horiz-adv-x="644" 
d="M589 704q1 -89 -87 -205q-42 -56 -155 -170q-115 -117 -130 -141q-10 -16 -17 -34q0 -19 45 -24l88 -9l57 -11l44 -3q17 -1 49 7l31 8q16 0 22 -2l44 -16q33 -12 34 -37q1 -23 -60 -44q-46 -16 -184 -18l-64 -1h-62q-98 0 -133 8q-81 19 -82 84q-1 106 86 214
q46 57 171 166q114 99 114 132q0 9 -13 29.5t-57 33.5q-48 14 -96 13l-42 -1q-25 -1 -70 -7q-16 24 -17 47q-1 37 46 56.5t120 20.5q112 1 218 -22q99 -22 100 -74z" />
    <glyph glyph-name="bracketleft" unicode="[" horiz-adv-x="350" 
d="M334 -57q1 -43 -51 -63q-37 -15 -89 -15q-114 -1 -138 20q-27 24 -28 138q-1 145 3 256q0 11 -8 108q-4 59 -15 178v255q0 116 213 119q35 0 72 -24q40 -27 41 -60q1 -21 -11.5 -28.5t-34.5 -8.5q-39 -2 -63 4q-44 0 -66 -21q-33 -31 -30 -104q4 -76 13 -223
q6 -107 6 -260q0 -67 -11 -166q0 -14 12 -20q88 -18 133 -28q51 -20 52 -57z" />
    <glyph glyph-name="backslash" unicode="\" horiz-adv-x="632" 
d="M586 -36q-18 -12 -42 -12q-9 0 -14 1q-15 0 -178 235q-72 104 -112 169q-73 119 -136 246q-65 132 -61 166q3 24 23 39t45 15q11 0 19 -2q12 -1 42 -48q43 -66 102 -175q83 -155 97 -179q73 -127 138 -217l78 -105q24 -34 24 -69q0 -47 -25 -64z" />
    <glyph glyph-name="bracketright" unicode="]" 
d="M494 3q0 -84 -148 -112q-69 -13 -208 -14q-90 0 -90 61q0 67 192 88q18 0 53 -3.5t53 -3.5q16 0 21.5 2.5t11 7.5t7.5 15v693q-36 56 -174 58q-27 0 -50.5 23.5t-23.5 50.5q0 62 65 62q49 0 158 -39q133 -48 133 -100v-789z" />
    <glyph glyph-name="asciicircum" unicode="^" horiz-adv-x="585" 
d="M508 571q0 -22 -15 -37t-38 -16q-24 -1 -76 32l-112 70q-23 0 -65 -67.5t-65 -68.5q-51 -1 -53 53q-1 23 59 108q66 94 118 95q20 0 132.5 -77.5t114.5 -91.5z" />
    <glyph glyph-name="underscore" unicode="_" horiz-adv-x="720" 
d="M881 -74q0 -59 -271 -73q-55 -3 -318 -3h-298q-25 0 -71 14q-61 19 -62 41q-1 39 153 50q50 4 163 5h70q43 0 63 -1l449 20q19 1 65 -14q57 -18 57 -39z" />
    <glyph glyph-name="grave" unicode="`" horiz-adv-x="419" 
d="M331 556q0 -25 -25.5 -54.5t-47.5 -29.5q-176 93 -176 221q0 63 48 63q20 0 61 -58q28 -40 39 -62q20 -26 67 -37q34 -8 34 -43z" />
    <glyph glyph-name="a" unicode="a" horiz-adv-x="610" 
d="M377 701q65 -4 110 -129q50 -138 61 -217l46 -318l-8 -22q-5 -15 -13.5 -21.5t-17.5 -8.5l-15 -1q-15 1 -21 4l-17 6l3 40l3 39q6 60 -9.5 89.5t-69.5 33.5q-153 11 -192.5 -3.5t-64 -69t-81.5 -96.5l-18 -4h-20q-14 1 -19 10q-2 8 -1 21q2 26 9 52q9 32 16 49
q25 53 92 248q54 158 103 237q42 66 124 61zM240 293l36 4h22l58 -9q15 -2 42 7q23 7 62 35q-3 66 -30 163q-26 94 -43 97l-11 2h-6q-56 4 -77 -120t-53 -179z" />
    <glyph glyph-name="b" unicode="b" horiz-adv-x="691" 
d="M430 715q45 -10 96.5 -69t39.5 -113q-10 -47 -29 -77q-19 -35 -65 -55q75 -58 119 -101q40 -39 24 -118q-19 -32 -21 -36t-15 -20q-64 -80 -165 -107q-90 -24 -197 -1q-78 17 -119 49l-76 58l-1 50l19 17l78 -22v67q0 20 2 64q1 33 11 89q8 41 23 56l26 17q0 8 -3 24
q0 1 -2 29.5t6 68.5q37 175 249 130zM273 606l-28 -153q30 1 77 -5q38 -4 61 0q35 6 81 32l26 43l-2 70q-18 17 -49 24l-70 17q-65 16 -78 0zM217 323l-36 -167q-4 -21 28 -28q22 -4 70 -3t69 -4l70 10q61 9 84 44l-5 79q-21 23 -93 55q-68 30 -105 37q-34 8 -56 3.5
t-26 -26.5z" />
    <glyph glyph-name="c" unicode="c" horiz-adv-x="647" 
d="M416 722q53 -8 132 -64q87 -62 81 -104q-1 -8 -9 -14q-82 37 -152 49q-19 3 -40 3q-7 0 -17 -1q-4 1 -10 -3q-149 21 -197 -20q-44 -37 -65 -190q-17 -117 92 -192q57 -39 212 -91q143 -48 140 -76l-31 -44h-88q-148 21 -249 77q-132 72 -163 194q-21 86 -10 171
q18 141 125 231q111 93 249 74z" />
    <glyph glyph-name="d" unicode="d" horiz-adv-x="654" 
d="M43 632q48 -2 213 2q161 4 225 -16q113 -35 133 -159q15 -96 0 -159q-18 -77 -83 -135q-48 -43 -228 -175l-155 -25l-24 85q-12 41 -18 80q-4 28 -15 81.5t-16 80.5q-6 42 -9 64l-13 108q-6 39 -8 84q-1 27 -2 84zM157 536q5 -29 10 -82q4 -56 8 -81q6 -52 17 -157
q4 -34 14 -78q8 -39 22 -79l109 41l141 134q31 37 33 209q-6 41 -57 59q-31 11 -104 17t-96 13z" />
    <glyph glyph-name="e" unicode="e" horiz-adv-x="540" 
d="M226 825q-34 -12 -53 -24l-5 -5l-13 -7l-4 -5q-20 -15 -30 -27q-154 -213 -78 -435q78 -71 117 -123t106 -62l62 15l31 -1q63 -2 151 66q14 34 9 69q-22 31 -53 39q-18 0 -32 -5q-166 -98 -266 44l-3 5q-7 17 -10 31h35l7 3l15 2q24 3 41 10l37 12q168 100 151 276
q-36 152 -190 130zM318 603q-43 -72 -100 -102l-96 -23q-3 30 10 57q43 173 173 222q63 -34 13 -154z" />
    <glyph glyph-name="f" unicode="f" horiz-adv-x="642" 
d="M397 799l111 1q7 1 18 2q60 0 75 -26q11 -17 12 -85l-54 4l-77 2q-176 5 -264 -45q-78 -44 -79 -117q-1 -55 21.5 -82t75.5 -24l71 4l58 5q32 3 54 -5q23 -2 46 -16q22 -10 23 -53q1 -27 -10 -51l-180 -16l-152 13l5 -82l-5 -205l-66 -23l-33 26q0 40 -2 76q-3 67 -7 152
l-9 148l3 103q3 109 19 154q27 74 108 103q97 35 238 37z" />
    <glyph glyph-name="g" unicode="g" horiz-adv-x="728" 
d="M486 805l59 -12l28 -46q-25 -10 -180 -76q-266 -116 -295 -338q-12 -85 42.5 -154.5t140.5 -80.5q159 -20 360 240q-132 54 -294 74l-23 3q-28 3 -34 5q-37 6 -36 35q13 52 274 21q94 -10 148 -26q48 -14 38 -97q-9 -68 -112 -167q-84 -80 -164 -127q-106 -61 -191 -51
q-101 13 -178 138q-74 118 -62 222q19 159 173 284q132 108 306 153z" />
    <glyph glyph-name="h" unicode="h" 
d="M358 790q-1 -126 -27 -271q0 -19 -4 -62q-45 -2 -62 0q-34 -2 -90 2l13 139q7 18 7 47v15q9 24 11 27t10 19l11 19l-5 23q17 11 12 28q-22 24 -56 20q-44 -16 -70 -45l-3 -4q-12 -19 -17 -31l-2 -9q-2 -10 -5 -20q-5 -13 -5 -21l-2 -13l-3 -14l-9 -52v-8l-5 -29v-19
l-3 -4v-14q-2 -25 -2 -42v-12q-48 -42 -41 -94q22 -14 43 -16q0 -17 3 -29v-17l2 -10l5 -46l3 -8l2 -16l7 -36l3 -16q9 -27 17 -35q46 -11 82 8q15 22 26 46q10 31 -3 61l-13 38l-25 68l80 2l76 10l-9 -47l-13 -133l9 -31q22 -16 49 -14q116 48 97 147l-8 84q30 -7 55 31
q47 47 -47 49v49l2 6l5 102q0 6 2 8l3 52l2 15l5 80l3 4v25l2 13q-5 18 -19 33q-29 6 -51 4q-58 -29 -48 -56z" />
    <glyph glyph-name="i" unicode="i" horiz-adv-x="252" 
d="M171 168q-29 -10 -51.5 -21t-41.5 -10q-28 3 -43 22.5t-8 49.5q3 12 10 23q15 305 73 360q-8 133 5 162q37 55 77 52q18 -2 32 -37q17 -45 -1 -112q-5 -22 -15 -46l-45 -370z" />
    <glyph glyph-name="j" unicode="j" horiz-adv-x="500" 
d="M392 758h123q14 -16 15 -30q0 -12 -80 -38q-85 -28 -81 -100l3 -33l5 -118l10 -183q5 -81 26 -157q-21 -52 -62.5 -75.5t-100.5 -23.5t-118 23q-67 25 -93 65q0 35 27 36q16 1 90 -37q69 -35 102 -36q31 -1 49 37q0 121 -12 285q-2 33 -8 104q-6 38 -16 98v19q5 17 21 57
l-83 -1h-71q-70 0 -70 12q0 7 12 24l19 26q53 35 160 35q48 1 67 2q47 2 66 9z" />
    <glyph glyph-name="k" unicode="k" horiz-adv-x="581" 
d="M191 679q34 -10 34 -72q0 -23 -14 -120l-14 -96q0 -36 18 -41q19 -2 80 63l124 135q59 65 76 60l43 -19q16 -7 16 -26q1 -55 -95 -126q-66 -48 -137 -112q17 -15 71 -94l72 -106q18 -25 48 -47l7 -16l4 -19q0 -28 -26 -37l-17 -2q-20 0 -27 4q-30 13 -93 101
q-44 62 -90 108q-40 41 -99 55q-21 -36 -34 -132.5t-39 -118.5l-39 -21l-34 21q19 116 41 314q5 55 10 111q11 98 30 155q27 80 68 81z" />
    <glyph glyph-name="l" unicode="l" horiz-adv-x="457" 
d="M120 696l22 7q5 0 10 2q10 2 15 2l13 -2q18 -3 20 -37q0 -11 -2 -23q0 -3 -14 -45q-3 -11 -10 -24l-16 -61l-27 -125q-11 -54 -11 -105q0 -47 42 -67q41 -19 110 -20q55 -1 126 12q14 2 30 6l12 -11q4 -4 7 -21q0 -6 -4 -15l-11 -15q-124 -58 -295 -58h-21q-45 0 -63.5 6
t-25.5 30l7 221q1 22 13 91q18 97 33 153q20 75 40 99z" />
    <glyph glyph-name="m" unicode="m" horiz-adv-x="651" 
d="M242 764l-44 -7l-28 -16l-29 -27l-26 -29l-34 -45v-9l-2 -20v-12l-14 -21v-24q11 -16 -3 -46l-15 -44l-10 -108q-5 -33 -1 -55q8 -19 22 -26q86 -3 117 82l4 13l3 32l-2 9l11 123l3 13l6 43q6 15 7 26l3 6q4 24 14 41q26 -29 37 -61l1 -6l9 -25q8 -32 18 -50
q15 -52 45 -86l19 -8l18 -2q93 10 80 62l7 10q16 23 21 38l4 -7l-1 -7l2 -28l9 -47l-10 -82l-4 -32q5 -13 -11 -54q-33 -91 132 -56l-2 41l-1 28l3 11l4 22l3 32l3 13l4 24l-5 71l-1 95q22 68 19 82q0 24 -7 42q-122 113 -227 -82q-27 142 -109 164z" />
    <glyph glyph-name="n" unicode="n" horiz-adv-x="476" 
d="M265 830l-10 -34l32 -60q115 -213 26 -274q-80 66 -170 42q-42 -54 -106 -187q-9 -24 -10 -40l-8 -20q-14 -32 -15 -59q9 -54 66 -60q43 -3 70 53l9 13l13 28l6 24l7 47q8 25 7 43l3 7q1 16 7 29q64 -49 78 -115l19 -20q149 -55 164 200q12 225 -67 335l-36 52l-22 15
l-17 3l-18 -4q-10 -6 -28 -18z" />
    <glyph glyph-name="o" unicode="o" horiz-adv-x="541" 
d="M264 657q79 0 146 -91.5t67 -210.5q1 -99 -114 -170q-101 -61 -206 -62q-66 0 -100 78q-24 58 -24 136q0 119 54 211q65 108 177 109zM157 337q-1 -4 -1.5 -5.5t-9.5 -16t-9 -26.5q0 -19 20 -41l28 -15q12 -6 38 -7l32 3q24 2 69.5 56t46.5 123q0 52 -28 96
q-33 50 -83 50l-13 -1q-44 0 -67 -66q-21 -62 -23 -150z" />
    <glyph glyph-name="p" unicode="p" horiz-adv-x="574" 
d="M327 841q-39 -9 -66 -29l-9 -9l-13 -11l-18 -21q-80 -131 -80 -271q-95 36 -135 -30q-16 -95 133 -99q-2 -197 113 -154q25 20 30 48l-3 13q-11 54 -9 88q211 -6 274 172q70 317 -213 306zM445 606q-34 -134 -183 -118q5 146 81 245q18 11 31 14q105 -16 71 -141z" />
    <glyph glyph-name="q" unicode="q" horiz-adv-x="703" 
d="M379 844q104 0 212 -75q116 -81 116 -181q0 -112 -66 -195q-79 -101 -156 -139l-79 -40l-4 -10l-2 -18q0 -51 45 -115l3 -10l3 -13q0 -37 -61 -39q-18 0 -28 24q-4 13 -5.5 20t-6.5 28q-51 98 -125 134l-138 68q-54 46 -54 171q0 151 96 267q102 123 250 123zM167 447
q-1 -64 34 -109q27 -34 90 -73l14 24q16 69 29 69q20 0 54 -72q91 33 144 98q56 69 57 163q1 63 -61 104q-53 36 -119 36q-98 1 -169.5 -70.5t-72.5 -169.5z" />
    <glyph glyph-name="r" unicode="r" horiz-adv-x="539" 
d="M319 742q59 0 116 -67.5t58 -128.5q1 -99 -84 -164l-155 -118l233 -167q18 -16 28 -73q-30 -45 -65 -46q-34 -1 -76 39l-112 105q-69 64 -127 102l10 -255l-64 -27l-45 61v413q0 133 74 226q79 100 209 100zM129 447l6 -95q78 0 148 52q62 46 101 121q-6 29 -26 62
q-24 41 -48 41q-52 0 -117 -55q-68 -58 -64 -126z" />
    <glyph glyph-name="s" unicode="s" horiz-adv-x="391" 
d="M393 884q-132 -33 -214 -110l-15 -24q-7 -11 -9 -18l-6 -15l-3 -11l-4 -18v-6q-2 -27 -2 -44l2 -7v-17l2 -11l11 -49l2 -13l7 -17l2 -9l2 -9l3 -9l33 -130q2 -17 -3 -33q-57 -24 -114 -13l-37 -2q-82 -62 -3 -117q201 -35 271 84l7 20l2 15l2 13v40l-2 11l-2 11l-3 18
l-2 15q-6 15 -6 29q-7 17 -9 33l-5 8l-6 29l-7 18q-2 15 -6 24l-14 50l-2 16l2 41q11 18 22 29l9 4q24 16 44 22l16 7l8 4l31 11q5 0 10.5 2.5t7.5 4.5q33 9 55 20q17 13 26 33q5 90 -81 79z" />
    <glyph glyph-name="t" unicode="t" horiz-adv-x="448" 
d="M216 731l-118 7l-20 6l-17 7l-16 1q-10 -3 -20 -19q-13 -15 -15 -36q7 -24 14 -29l12 -9l13 -1l17 -7l25 -5l51 5q28 -9 71 -1l-2 -37q0 -25 -2 -42q0 -25 -1 -41v-13l-2 -8v-15l-2 -6v-21l-1 -11q0 -25 -4 -41l-5 -65v-8q-2 -13 -3 -32l-2 -14q0 -23 -3 -38q0 -21 5 -38
q52 -48 98 49q10 22 11 58q6 33 6 52l1 11l2 27l2 10q0 17 3 42v19l3 27q0 17 2 29v19q3 15 2 27q3 19 1 34l5 6q9 0 14 2q15 0 39 6q30 6 49 17q25 46 18 94q-6 14 -15 23h-10l-17 -4l-5 -2l-71 -13q7 96 -49 84q-49 -32 -64 -106z" />
    <glyph glyph-name="u" unicode="u" horiz-adv-x="673" 
d="M620 665l25 -113l-8 -186q-18 -110 -89 -180q-81 -80 -209 -80q-149 0 -216 90q-42 57 -70 202l-19 259q-1 17 20 26q13 4 17 5l25 5l34 -6q17 -5 28 -16l-4 -79l-4 -103q-2 -77 13 -151q13 -67 49.5 -109t107.5 -43q58 0 94 25q22 16 61 68q60 79 60 203q0 65 -15 123
q-6 26 -14 49l11 18q8 7 28 9l30 2q24 0 31 -6z" />
    <glyph glyph-name="v" unicode="v" horiz-adv-x="559" 
d="M489 683l18 -8q8 -3 16 -11q4 -5 8 -17q4 -30 -24 -71q-34 -99 -55 -256q-21 -166 -40 -229q-11 -38 -58 -66q-35 -22 -55 -29q-32 -4 -53 42q-23 62 -67 186q-55 161 -86 208l-37 54q-17 26 -21 48q-5 32 9 42q15 6 29 10q11 6 19 7q36 5 77 -83q23 -59 46 -116
q71 -177 97 -196q4 -2 11 -4q14 2 45 158q21 103 41 206q23 89 80 125z" />
    <glyph glyph-name="w" unicode="w" horiz-adv-x="1028" 
d="M788 33q-7 -5 -24 -8q-16 -2 -33 1l-27 11q-58 45 -78 116l-40 140q-19 66 -91 110q-16 2 -56 -114q-67 -197 -84 -238q-22 -53 -61 -58q-12 -2 -26.5 7t-28.5 29q-37 72 -85 209q-50 142 -82 205l-31 62q-2 9 -7 22l-1 13q-2 19 8 41q3 3 12 15l29 27l15 4q49 5 78 -108
q2 -9 22 -106q21 -101 28 -125q28 -92 63 -90q10 1 21 9q19 37 53 136q30 89 61 138q37 61 71 76l41 18q33 3 64 -58q21 -42 81 -191q53 -127 67 -141q11 -7 20 -10q39 4 53 196q12 159 3 238q-5 52 -16 65q11 56 58 61l30 -1q23 -1 36 -22q6 -12 15 -42l-2 -214l-42 -201
q-17 -84 -34 -122q-27 -63 -80 -100z" />
    <glyph glyph-name="x" unicode="x" horiz-adv-x="588" 
d="M275 461l152 227q4 3 14 6q14 0 29 -16q4 -5 14 -16q5 -9 12 -18q0 -36 -15 -68q-16 -36 -49 -84l-67 -98q33 -10 89 -84q45 -56 70 -104q23 -42 23 -58q0 -9 -3 -17q-9 -17 -28.5 -29t-41.5 -13q-37 -1 -62 43l-54 93q-27 47 -55 63l-74 -105q-35 -50 -50 -79
q-18 -11 -26 -14q-12 -5 -31 -5q-16 -1 -26 3q-28 15 -29 41q-1 19 10 40q4 11 10 23q6 9 9 13q44 43 70 87l44 73q-54 32 -97 77q-52 55 -72 118q-14 23 -14 45q0 25 19 41t51 19l17 2h9q24 0 32.5 -7.5t10.5 -27.5l-1 -25q-2 -48 29 -86q26 -29 81 -60z" />
    <glyph glyph-name="y" unicode="y" horiz-adv-x="700" 
d="M114 619q20 -7 34 -29q12 -24 18 -51q5 -18 6 -61l1 -39q9 -46 35 -94.5t63 -45.5l44 4q47 9 78 90l59 160q42 87 116 101q28 -5 37 -41q3 -13 -1 -64l-4 -48q18 -97 -3 -238q-20 -134 -76 -232q-74 -129 -192 -153q-223 -45 -251 1q-18 31 -21 44q-3 17 18 22q4 1 57 0
l66 -1q22 2 54 8q177 34 237 228q23 74 19 126l-9 97l-48 -110q-29 -53 -97 -67q-77 -14 -128.5 2t-98.5 71q-64 75 -79 154l-10 53q-10 51 -10 57q0 31 27 48z" />
    <glyph glyph-name="z" unicode="z" horiz-adv-x="587" 
d="M533 684q1 -73 -78 -168q-38 -46 -140 -139q-103 -96 -117 -116q-9 -13 -15 -28q0 -15 40 -19l80 -8l51 -9l40 -2q15 -1 44 6l28 6q14 0 20 -2l39 -13q30 -9 31 -30q1 -19 -54 -36q-42 -13 -166 -15l-58 -1h-55q-89 0 -120 7q-73 16 -74 69q-1 87 77 175q42 47 154 136
q103 81 103 108q0 8 -11.5 24.5t-51.5 27.5q-43 11 -86 10h-38q-23 -1 -63 -6q-15 20 -16 38q-1 31 41.5 47t108.5 16q101 1 196 -18q90 -18 90 -60z" />
    <glyph glyph-name="braceleft" unicode="{" horiz-adv-x="505" 
d="M500 -68q0 -20 -16.5 -31.5t-38.5 -11.5q-37 0 -160 68q-138 77 -147 132q-5 29 -5 60q0 25 3.5 59.5t3.5 44.5q0 11 -2 18q-5 14 -32 28q-36 19 -45 26q-23 20 -23 50q0 35 49.5 78.5t49.5 82.5q0 11 -13.5 58.5t-13.5 65.5q0 59 52 129q58 78 123 78q22 0 36 -14
q11 -11 11 -26q0 -24 -64 -79.5t-64 -86.5q0 -16 27 -71t27 -78q0 -33 -30.5 -66t-30.5 -37q0 -15 37.5 -43t37.5 -59q0 -18 -26.5 -74.5t-26.5 -67.5q0 -48 73 -93q67 -34 135 -69q73 -38 73 -71z" />
    <glyph glyph-name="bar" unicode="|" horiz-adv-x="292" 
d="M219 -138q0 -16 -16 -34.5t-31 -18.5q-23 0 -39.5 27.5t-16.5 71.5q0 18 3 36q-17 198 -45 651q-4 80 0 125q19 84 52 84q15 0 33 -50q23 -64 23 -165q0 -33 -3 -69l40 -549v-109z" />
    <glyph glyph-name="braceright" unicode="}" horiz-adv-x="510" 
d="M481 616q0 -65 -30 -104q-19 -25 -57 -44q-30 -16 -30 -23q0 -11 31 -37t31 -56q0 -36 -39.5 -59.5t-39.5 -45.5q0 -9 19 -31q24 -28 34 -49q19 -37 19 -85q0 -120 -87 -166q-62 -33 -185 -33q-38 0 -85 14q-59 18 -59 45q0 33 77 37q125 7 143 12q77 19 77 87
q0 12 -48 89t-48 102q0 24 20.5 50.5t20.5 39.5q0 20 -29.5 53t-29.5 57q0 38 46 56l84 30q46 23 46 73q0 44 -60 97q-55 43 -111 87q-60 48 -60 81q0 16 18.5 37.5t36.5 21.5q13 0 81 -44q85 -56 140 -120q74 -86 74 -172z" />
    <glyph glyph-name="asciitilde" unicode="~" horiz-adv-x="905" 
d="M874 338q0 -13 -28 -47q-37 -46 -92 -74q-74 -39 -167 -39q-104 0 -166 41q-42 39 -83 78q-46 41 -111 41q-42 0 -65 -33q-2 -4 -28 -62q-14 -33 -37 -33q-28 0 -48.5 21t-20.5 57q0 50 32 103q50 85 154 85q89 0 154 -41l94 -78q54 -41 117 -41q62 0 139.5 44t90.5 44
q19 0 42 -21t23 -45z" />
    <glyph glyph-name="cent" unicode="&#xa2;" horiz-adv-x="535" 
d="M492 255q0 -58 -63 -102l-68 -34q-14 -9 -14 -53v-34q0 -63 -43 -64q-23 -1 -34 44q-28 111 -87 139q-119 56 -121 197q-1 130 146 188q34 13 46 65q5 44 10 88.5t26 44.5q32 0 47 -9q11 -7 13 -24q0 -12 -4 -26q-12 -41 -12 -52q0 -15 5.5 -25.5t50.5 -35.5
q36 -20 36 -56q0 -22 -31 -32q-69 -23 -69 -116q0 -26 8 -70q10 -56 23 -56q26 0 48 33t47 33q27 0 33.5 -7t6.5 -24v-12zM241 337q-1 7 -5 19q0 10 -1 15q0 7 0.5 12t2.5 8q0 11 -23 32q-16 -16 -38 -54q-6 -10 -15 -31q0 -38 18 -57q14 -15 55 -30l4 44q1 15 2 42z" />
    <glyph glyph-name="circumflex" unicode="&#x2c6;" horiz-adv-x="702" 
d="M583 944q0 -22 -15 -37t-38 -16q-24 -1 -76 32l-112 70q-23 0 -65 -67.5t-65 -68.5q-51 -1 -53 53q-1 23 59 108q66 94 118 95q20 0 132.5 -77.5t114.5 -91.5z" />
    <glyph glyph-name="tilde" unicode="&#x2dc;" horiz-adv-x="702" 
d="M606 968q0 -18 -36 -51q-49 -45 -123 -45q-52 0 -83 21q-21 19 -43 39t-54 20q-28 0 -40.5 -32t-24.5 -32q-20 0 -34.5 14.5t-14.5 40.5q0 29 18 60q29 48 89 48q57 0 102.5 -40t80.5 -40q31 0 70 22t45 22q14 0 31 -14.5t17 -32.5z" />
    <glyph glyph-name="quoteleft" unicode="&#x2018;" horiz-adv-x="328" 
d="M264 598q-2 -19 -5 -28t-18 -9q-33 1 -44 32q-22 62 -31 75t-59 64q-35 36 -35 63q1 13 11.5 21t23.5 8q35 -1 98 -103q59 -95 59 -123z" />
    <glyph glyph-name="quoteright" unicode="&#x2019;" horiz-adv-x="316" 
d="M254 768q-1 -34 -67.5 -139t-92.5 -105q-38 0 -38 34q2 13 15 34.5t58 98.5q69 118 97 117q29 -1 28 -40z" />
    <glyph glyph-name="quotedblleft" unicode="&#x201c;" horiz-adv-x="515" 
d="M439 606q0 -13 -16.5 -22t-31.5 -10q-11 -1 -51 48q-45 55 -45 96q0 20 28 23q15 0 64 -59.5t52 -75.5zM268 558q0 -34 -38 -34q-26 0 -92.5 105t-67.5 139q-1 39 28 40q28 1 97 -117q26 -43 59 -100q12 -20 14 -33z" />
    <glyph glyph-name="quotedblright" unicode="&#x201d;" horiz-adv-x="516" 
d="M408 698q0 -16 -38 -66q-76 -100 -102 -101q-9 0 -13.5 6t-6.5 22q0 20 56 96t70 76q9 0 20.5 -11.5t13.5 -21.5zM278 795q0 -27 -35 -63q-50 -51 -59 -64t-31 -75q-11 -31 -44 -32q-15 0 -18 9t-5 28q0 28 59 123q63 102 98 103q13 0 23.5 -8t11.5 -21z" />
    <glyph glyph-name="trademark" unicode="&#x2122;" horiz-adv-x="988" 
d="M925 543q0 -72 -3 -96q-9 -72 -42 -72q-29 0 -43 40q-10 36 -20 73q-14 40 -45 40q-12 0 -35.5 -15.5t-25.5 -15.5q-24 0 -92 54q-16 -24 -46 -102q-20 -52 -43 -52q-36 0 -36 53q0 18 4.5 47t4.5 32q0 46 -25 88q-30 49 -74 49q-86 0 -86 -89q0 -23 7.5 -73t7.5 -70
q0 -59 -49 -59q-34 0 -54 92q-10 61 -19.5 121t-50.5 76q-34 7 -68.5 14t-34.5 47q0 33 62 55q48 17 85 17q22 0 106 -8q108 -11 148 -23q24 -8 67 -7t48 0q9 -4 52 -56q36 -44 75 -44q27 0 67 57.5t78 57.5q32 0 54 -54q26 -64 26 -177z" />
    <glyph glyph-name="periodcentered" unicode="&#xb7;" horiz-adv-x="240" 
d="M201 412q1 -38 -23 -59q-15 -13 -55 -14q-39 -1 -63 33q-12 17 -12 48q0 24 18 42q32 32 69 33q20 0 33 -11l18 -22q14 -17 15 -50z" />
    <glyph glyph-name="periodcentered" unicode="&#x2219;" horiz-adv-x="240" 
d="M201 412q1 -38 -23 -59q-15 -13 -55 -14q-39 -1 -63 33q-12 17 -12 48q0 24 18 42q32 32 69 33q20 0 33 -11l18 -22q14 -17 15 -50z" />
    </font>
</defs>
</svg>
